<?xml version="1.0" encoding="iso-8859-1"?>
<!-- Generator: Adobe Illustrator 19.0.0, SVG Export Plug-In . SVG Version: 6.00 Build 0)  -->
<svg version="1.1" id="Capa_1" xmlns="http://www.w3.org/2000/svg" xmlns:xlink="http://www.w3.org/1999/xlink" x="0px" y="0px"
	 viewBox="0 0 511.999 511.999" style="enable-background:new 0 0 511.999 511.999;" xml:space="preserve">
<g>
	<g>
		<path d="M508.129,245.942c-1.155-1.278-28.809-31.661-73.431-62.307C375.034,142.659,313.241,121,255.999,121
			c-57.241,0-119.034,21.659-178.698,62.635c-44.622,30.646-72.275,61.029-73.43,62.307c-5.162,5.712-5.162,14.404,0,20.115
			c1.155,1.278,28.809,31.661,73.431,62.307C136.965,369.341,198.759,391,255.999,391c57.241,0,119.034-21.659,178.698-62.635
			c44.622-30.646,72.275-61.029,73.431-62.307C513.289,260.346,513.289,251.654,508.129,245.942z M145.484,333.44
			c-40.404-19.392-78.937-47.81-109.449-77.434c17.675-17.131,57.684-52.53,109.471-77.478
			c-15.432,21.944-24.506,48.667-24.506,77.472C120.999,284.791,130.064,311.502,145.484,333.44z M255.999,361
			c-57.848,0-105-47.06-105-105c0-57.897,47.103-105,105-105c57.854,0,105,47.066,105,105C361,313.897,313.897,361,255.999,361z
			 M366.494,333.472C381.926,311.528,391,284.805,391,256c0-28.791-9.065-55.502-24.484-77.44
			c40.404,19.392,78.937,47.81,109.449,77.434C458.291,273.125,418.281,308.524,366.494,333.472z"/>
	</g>
</g>
<g>
	<g>
		<path d="M255.999,181c-41.355,0-75,33.645-75,75s33.645,75,75,75c41.355,0,75-33.645,75-75C331,214.645,297.355,181,255.999,181z
			 M255.999,301c-24.813,0-45-20.187-45-45s20.187-45,45-45s45,20.187,45,45S280.813,301,255.999,301z"/>
	</g>
</g>
<g>
</g>
<g>
</g>
<g>
</g>
<g>
</g>
<g>
</g>
<g>
</g>
<g>
</g>
<g>
</g>
<g>
</g>
<g>
</g>
<g>
</g>
<g>
</g>
<g>
</g>
<g>
</g>
<g>
</g>
</svg>
